<svg xmlns="http://www.w3.org/2000/svg" viewBox="0 0 542.98 542.98"><defs><style>.cls-1{fill:#795da8;stroke:#795da8;}.cls-1,.cls-2{stroke-miterlimit:10;}.cls-2{fill:none;stroke:#dd772b;stroke-width:20px;}</style></defs><g id="Layer_2" data-name="Layer 2"><g id="Layer_1-2" data-name="Layer 1"><path class="cls-1" d="M369.26,402.23h.11c.12-.06.24-.14.37-.2Zm-206-5.82a34.36,34.36,0,0,0,9.68,5.82h1.49A34.19,34.19,0,0,1,163.22,396.41Zm-3.76-21.74-3.79,0a39.29,39.29,0,0,0-.6,6.78,14.52,14.52,0,0,0,.92,5,9.45,9.45,0,0,1-.37-2.44C155.55,380.31,157.8,376.77,159.46,374.67ZM137.75,392.5a38.52,38.52,0,0,0,11.71,17.42A42.79,42.79,0,0,1,137.75,392.5Z"/><path class="cls-1" d="M373.61,421c-.51.16-1,.29-1.47.42h.92a39.61,39.61,0,0,0,4.78-2A42.87,42.87,0,0,1,373.61,421Zm-203.42,0a53.81,53.81,0,0,1-20.65-11,52.77,52.77,0,0,0,20.1,11.44h2.07C171.2,421.3,170.7,421.17,170.19,421ZM156,386.54c.9,3.23,3.34,6.79,7.2,9.87A24.24,24.24,0,0,1,156,386.54Z"/><polygon class="cls-1" points="178.37 441.02 178.37 441 179.74 441 178.37 441.02"/><path class="cls-1" d="M401.66,286.74c-13.07-14.12-30.43-15.65-37.56-15.65-1.42,0-2.43.08-2.94.09,2-2.23,15-17.27,12.2-38.84-.37-2.94-2.76-19.26-17.19-31.07-10.5-8.59-22.31-10.67-31.3-10.67a54.36,54.36,0,0,0-14.21,1.79c2.74-3.47,17.41-22.65,13.87-49.39-3.42-25.82-21.33-40.17-26.08-43.83C284,88,267.75,85,254.45,85A109.88,109.88,0,0,0,228,88.61c2.65.56,19.32,3.7,27.74,20,1,1.84,6.84,13.65,2.78,27.19-2.71,9.09-8.41,14.08-18.31,22.76-10.59,9.29-19.86,14.16-27.19,18.32-31.51,17.89-47.34,27-51.61,35.51-8.2,16.4-3,36.06-1.67,41.07a69.48,69.48,0,0,0,8.89,20c-4.59,1.13-23.11,6.28-33.3,23.84-5.89,10.14-6.35,19.83-6.67,26.09-.38,8-1,20.48,7.22,30.53a31.21,31.21,0,0,0,5,4.81c-2.6,4.95-4.95,13.26-4.95,22.76a33.44,33.44,0,0,0,1.63,10.22c.09.27.17.56.26.83a42.79,42.79,0,0,0,11.71,17.42s0,.06.08.07a53.81,53.81,0,0,0,20.65,11c.51.16,1,.29,1.52.42,1,.26,2,.49,3,.71,1.63,6.15,3.27,12.28,4.9,18.44h0l.11.41c.37,1.42.75,2.84,1.12,4.27q5.34,20.13,10.66,40.24,4.78,18,9.54,36c.18.66.35,1.33.53,2q10.42,2.9,21.17,4.92l-3.13-11.81c-1-3.74-2-7.53-3-11.29l44.25,27.43q5.29.22,10.63.22,12.33,0,24.37-1.14l-86.39-53.53q-5-19-10.06-37.91l-.55-2.06L323.58,503,319,520.36c-.76,2.9-1.52,5.81-2.29,8.71q10.68-1.86,21.06-4.57,3.49-13.38,7-26.74,9.84-37.51,19.69-75.07a40.56,40.56,0,0,0,7.66-1.26c.48-.13,1-.26,1.47-.42a42.87,42.87,0,0,0,4.23-1.56l.14,0a38.74,38.74,0,0,0,10.37-6.71,39.61,39.61,0,0,0,12.21-21.65V358.86A56.92,56.92,0,0,0,414.43,325C414.71,319.76,415.41,301.55,401.66,286.74ZM336.07,455.35q-3.75,14.26-7.49,28.55L208,421.43H345Q340.52,438.4,336.07,455.35Zm44.74-68.59a25.09,25.09,0,0,1-6.48,11.91,18.61,18.61,0,0,1-4.59,3.36c-.13.06-.25.14-.37.2H172.9a34.36,34.36,0,0,1-9.68-5.82c-3.86-3.08-6.3-6.64-7.2-9.87a.17.17,0,0,1,0-.1,14.52,14.52,0,0,1-.92-5,39.29,39.29,0,0,1,.6-6.78l3.79,0,221.35.5ZM395.25,324a37.46,37.46,0,0,1-9.19,22.28l-4.7,5.42V356l-207.26-.5-19.65-10.7-.11-.07-.07,0-.23-.15a12.69,12.69,0,0,1-3.32-2.78c-3.27-4-3.25-10-2.9-17.41v-.07c.27-5.29.57-11.27,4.09-17.33,5.86-10.09,16.86-13.75,21.32-14.87l26.12-6.49L184.72,263a50.83,50.83,0,0,1-6.45-14.48c-3.76-14.28-2-22.67.15-27.24,3.7-4.82,24.21-16.45,44.05-27.7l2.06-1.16c7.27-4.1,17.23-9.68,28.33-19.42l.07-.06c11-9.66,19.7-17.28,24-31.63a55.46,55.46,0,0,0-.59-33,46.44,46.44,0,0,1,10.38,6c7.47,5.78,16.78,15.89,18.81,31.17,2.36,17.84-7,31.27-9.9,35L258.73,227.1l57.19-16.24a36.28,36.28,0,0,1,8.95-1.06c7.56,0,14,2.14,19.14,6.35a29.9,29.9,0,0,1,10.29,18.61h0v0c1.63,12.61-6,21.89-7.51,23.61l-31.27,35.15,46.95-3.22c.47,0,1-.05,1.61-.05,4.42,0,15.54.94,23.49,9.49C393.2,305.84,395.78,314,395.25,324Z"/><path class="cls-2" d="M533,271.49c0,121.51-82.88,223.66-195.19,253q-10.37,2.71-21.06,4.58-10.31,1.8-20.87,2.77-12,1.13-24.37,1.13-5.34,0-10.63-.21a262.62,262.62,0,0,1-38.13-4.33q-10.74-2-21.17-4.92C91.1,492.94,10,391.69,10,271.49,10,127.07,127.07,10,271.49,10S533,127.07,533,271.49Z"/></g></g></svg>