<svg xmlns="http://www.w3.org/2000/svg" viewBox="0 0 542.98 542.98"><defs><style>.cls-1{fill:#795da8;stroke:#795da8;}.cls-1,.cls-2{stroke-miterlimit:10;}.cls-2{fill:none;stroke:#dd772b;stroke-width:20px;}</style></defs><g id="Layer_2" data-name="Layer 2"><g id="Layer_1-2" data-name="Layer 1"><path class="cls-1" d="M286.84,384.63a29.94,29.94,0,0,0,9.07,13.5A33.22,33.22,0,0,1,286.84,384.63Zm21.29,4.17c-.54-.37-1.06-.75-1.55-1.14.49.42,1,.83,1.53,1.21a26.58,26.58,0,0,0,6,3.3h1.15A27.42,27.42,0,0,1,308.13,388.8Zm158.18,3.37h.08c.1,0,.19-.1.29-.15C466.56,392.07,466.44,392.13,466.31,392.17Z"/><path class="cls-1" d="M301,380a15.82,15.82,0,0,0,5.59,7.65A18.91,18.91,0,0,1,301,380Zm-5,18.18a39.67,39.67,0,0,0,8.18,5.77l.07-.25A39.59,39.59,0,0,1,296,398.19Zm173.71,8.55c-.39.12-.77.22-1.14.32h.71a33,33,0,0,0,3.72-1.53A33.67,33.67,0,0,1,469.68,406.74Z"/><polygon class="cls-1" points="318.32 422.24 318.32 422.23 319.39 422.23 318.32 422.24"/><path class="cls-1" d="M491.43,302.63c-10.14-10.93-23.59-12.12-29.12-12.12-1.1,0-1.88.05-2.28.07,1.55-1.73,11.62-13.4,9.46-30.11a38.26,38.26,0,0,0-13.33-24.09,37.73,37.73,0,0,0-24.26-8.27,42.81,42.81,0,0,0-11,1.38c2.13-2.69,13.5-17.56,10.76-38.29-2.65-20-16.54-31.13-20.22-34-11.19-8.67-23.81-10.94-34.11-10.94A85.25,85.25,0,0,0,356.78,149c2.05.44,15,2.87,21.51,15.49.73,1.42,5.29,10.57,2.14,21.08-2,6.71-6.11,10.55-13.14,16.73-9.16-6.71-19.37-7.55-24-7.55-1.09,0-1.88.05-2.27.07,1.54-1.73,11.61-13.4,9.45-30.11a38.23,38.23,0,0,0-13.33-24.09,37.74,37.74,0,0,0-24.26-8.28,41.93,41.93,0,0,0-11,1.39c2.12-2.69,13.49-17.56,10.75-38.29-2.65-20-16.54-31.13-20.22-34-11.19-8.67-23.8-11-34.11-11a85,85,0,0,0-20.53,2.77c2.06.43,15,2.87,21.51,15.48.73,1.43,5.3,10.58,2.15,21.08-2.1,7-6.52,10.92-14.19,17.65-8.21,7.2-15.4,11-21.08,14.2-24.43,13.86-36.71,20.92-40,27.52a36.61,36.61,0,0,0-3.49,17,56.88,56.88,0,0,0-9.28-9c-11.19-8.67-23.8-10.94-34.11-10.94A85,85,0,0,0,118.73,149c2,.44,15,2.87,21.5,15.49.74,1.42,5.3,10.57,2.15,21.08-2.1,7-6.52,10.91-14.19,17.64-8.21,7.2-15.4,11-21.08,14.2-24.43,13.86-36.7,20.92-40,27.53-6.36,12.72-2.32,28-1.3,31.84a54.26,54.26,0,0,0,6.89,15.49c-3.55.88-17.91,4.88-25.81,18.49C42.32,318.65,42,326.17,41.71,331c-.3,6.23-.78,15.88,5.6,23.67a23.42,23.42,0,0,0,3.85,3.73c-2,3.83-3.84,10.28-3.84,17.64A26,26,0,0,0,48.58,384c.07.21.13.42.2.64a33.24,33.24,0,0,0,9.08,13.5.17.17,0,0,0,.06.06,41.75,41.75,0,0,0,16,8.55c.39.12.78.22,1.18.32.76.2,1.53.38,2.32.54,1.26,4.78,2.53,9.53,3.79,14.31h0c0,.1.06.2.09.3v0l.87,3.3q4.14,15.61,8.26,31.2l1.21,4.57a261.83,261.83,0,0,0,19.94,17.09c-.55-2.09-1.11-4.2-1.67-6.29l70.91,43.95-.18.7q7,2.6,14.13,4.78,1.35-5.12,2.68-10.22,3.14-11.9,6.25-23.78l5.58-21.3q7-26.61,14-53.22,1.38,5.24,2.77,10.47l7.4,27.92q3.74,14.08,7.46,28.15c.22.84.45,1.68.67,2.52.15.59.31,1.16.46,1.75h0l7.4,27.92,5.49,20.7c5.48.35,11,.52,16.59.52q7.22,0,14.33-.39L286,532c.12-.48.24-.95.37-1.43h0c.07-.27.15-.55.21-.83,0,0,0-.06,0-.08q2.69-10.2,5.35-20.38,3.24-12.37,6.49-24.74L304,463.26l6.92-26.36q2.79-10.65,5.58-21.3l.55-2.11,2.24,8.42h0c0,.1.05.2.08.3v0c.29,1.1.59,2.2.87,3.3q4.14,15.61,8.27,31.2,3.71,14,7.39,27.92,4.58,17.28,9.16,34.55l.81,3q8.59-2.54,16.93-5.66l-3.66-2.4-8.84-33.33c-.76-2.91-1.54-5.84-2.32-8.75l47.69,29.56q7.44-4,14.58-8.5l-67.81-42q-3.89-14.68-7.79-29.39l-.43-1.59,96.69,50.09-2.79,10.64q10.23-7.65,19.65-16.27L462.61,408a31.75,31.75,0,0,0,5.93-1c.37-.1.75-.2,1.14-.32a33.67,33.67,0,0,0,3.29-1.21l.1,0a29.37,29.37,0,0,0,8-5.19,30.73,30.73,0,0,0,9.47-16.78V358.56a44.21,44.21,0,0,0,10.75-26.24C501.55,328.25,502.09,314.12,491.43,302.63Zm-299.61-90.5a32.8,32.8,0,0,1,3.5-1.09l20.25-5-11.35-17.52a39.13,39.13,0,0,1-5-11.22c-2.92-11.07-1.58-17.57.12-21.11,2.87-3.74,18.77-12.76,34.15-21.48l1.59-.9a120.34,120.34,0,0,0,22-15.06l.05,0c8.53-7.49,15.27-13.41,18.58-24.52a43,43,0,0,0-.46-25.57,35.07,35.07,0,0,1,8,4.68c5.79,4.48,13,12.31,14.59,24.17,1.83,13.82-5.42,24.23-7.68,27.1L261.6,160.69l44.33-12.6a28.34,28.34,0,0,1,6.94-.81,22.78,22.78,0,0,1,14.84,4.91,23.25,23.25,0,0,1,8,14.42v0c1.26,9.78-4.62,17-5.82,18.31l-24.24,27.25,36.4-2.5c.36,0,.78,0,1.24,0A27.78,27.78,0,0,1,354.46,212c-3.42,2.16-6.54,3.85-9.3,5.42-24.43,13.86-36.7,20.92-40,27.53a35.87,35.87,0,0,0-3.49,15.47l-70.25-.17a38.2,38.2,0,0,0-13.3-23.9,37.76,37.76,0,0,0-24.26-8.27,42.81,42.81,0,0,0-11,1.38A53.74,53.74,0,0,0,191.82,212.13ZM279.91,341.2l-16.65-8.63a2.11,2.11,0,0,0,0-.25,42.66,42.66,0,0,0-3.94-21h25.3C280.35,319,280,326.28,279.76,331A60.82,60.82,0,0,0,279.91,341.2Zm-34.06-44.76a42,42,0,0,0-21.59-5.93c-1.1,0-1.89.05-2.28.07a40.64,40.64,0,0,0,8.34-15.4l73.16.17c.14.6.28,1.09.37,1.47a54,54,0,0,0,6.9,15.49,46,46,0,0,0-10.65,4.13ZM61.64,347.57l0,0-.18-.11a9.81,9.81,0,0,1-2.58-2.17c-2.53-3.09-2.52-7.73-2.24-13.48v-.07c.2-4.09.44-8.73,3.17-13.43,4.54-7.82,13.07-10.66,16.53-11.52l20.25-5L85.19,284.21a39.28,39.28,0,0,1-5-11.22c-2.91-11.07-1.57-17.57.12-21.11,2.87-3.73,18.77-12.75,34.15-21.47l1.6-.91a120.67,120.67,0,0,0,22-15.06l0,0c8.53-7.49,15.28-13.4,18.58-24.52a42.89,42.89,0,0,0-.45-25.57,35.88,35.88,0,0,1,8.05,4.68c5.78,4.48,13,12.31,14.58,24.17a34.48,34.48,0,0,1,0,8.85,38.44,38.44,0,0,1-7.69,18.25l-10.31,13-18.27,23.12L162,250.88l14.35-4.07,10.53-3a28.16,28.16,0,0,1,6.95-.82,22.79,22.79,0,0,1,14.83,4.91,23.07,23.07,0,0,1,7.59,12.34,20,20,0,0,1,.39,2.08v.06a22.66,22.66,0,0,1-2.19,12.75,24,24,0,0,1-3.63,5.55l-14,15.75-10.24,11.5,36.4-2.5c.36,0,.79,0,1.25,0,3.15,0,10.75.62,16.75,5.93a17.75,17.75,0,0,1,1.45,1.43,22.32,22.32,0,0,1,5.64,11.95,32.9,32.9,0,0,1,.31,6.81,27.31,27.31,0,0,1-2.06,9.07,30.7,30.7,0,0,1-5.07,8.22l-3.64,4.2v3.29l-12.87,0-16.56,0L77,355.92l-15.23-8.3ZM189.31,483.75l-3.6,13.69-.92,3.54-80.41-49.83-7.8-29.39-.42-1.59,96.69,50.09Zm13.22-50.39q-2.91,11.06-5.81,22.12l-93.48-48.42H209.42Q206,420.2,202.53,433.36Zm29.82-44.12a1.29,1.29,0,0,1-.16.17,14.43,14.43,0,0,1-3.56,2.61c-.1.05-.19.11-.29.15H76a26.43,26.43,0,0,1-7.51-4.51A15.79,15.79,0,0,1,62.94,380a.25.25,0,0,1,0-.07,11.36,11.36,0,0,1-.71-3.89,30.65,30.65,0,0,1,.46-5.26h2.94l146.54.34,25.06.05v9c-.08.34-.18.72-.31,1.14A19,19,0,0,1,232.35,389.24Zm41.77,129c-.73,2.63-1.48,5.33-2.07,8.11a.53.53,0,0,0,0,.12c0,.11,0,.21-.08.32l-.49,1.87c-.35,1.36-.72,2.72-1.07,4.08-.55-2.08-1.1-4.15-1.64-6.23q-2.48-9.28-4.93-18.59l-1.12-4.2,12.85,9.18C275.12,514.65,274.63,516.43,274.12,518.26ZM284,480.78q-1.44,5.46-2.86,10.92l-1.53,5.84L264,486.39v0l-7.26-5.18L256,478.5l-2.45-9.29q-2.88-10.8-5.73-21.62l-2-7.58,41.73,27.31Q285.77,474,284,480.78Zm12.5-47.66q-1.72,6.6-3.46,13.18l-1.53,5.83L240.1,418.47l-3.62-13.68a29.46,29.46,0,0,0,6.58-4.5,30.24,30.24,0,0,0,7.51-10.5l49.29,30.54ZM304.15,404l-.34,1.3-51.28-31.78V358.56a45.24,45.24,0,0,0,7.06-11.11L287.68,362a42.9,42.9,0,0,0-2.31,14.06,26,26,0,0,0,1.27,7.93c.06.21.12.42.2.64a33.22,33.22,0,0,0,9.07,13.5.17.17,0,0,0,.06.06,39.59,39.59,0,0,0,8.25,5.52Zm136.43,29.4q-2.91,11.06-5.81,22.12l-93.48-48.42H447.47Q444,420.2,440.58,433.36Zm34.68-53.18a19.35,19.35,0,0,1-5,9.23,14.25,14.25,0,0,1-3.56,2.61c-.1.05-.19.11-.29.15H314.09a26.58,26.58,0,0,1-6-3.3c-.53-.38-1-.79-1.53-1.21A15.82,15.82,0,0,1,301,380a.25.25,0,0,1,0-.07,11.36,11.36,0,0,1-.71-3.89,29.62,29.62,0,0,1,.47-5.26h3.94l23.56.05,147,.34Zm11.2-48.66a29.2,29.2,0,0,1-7.12,17.29l-3.65,4.2v3.29L332.14,356l-15.38,0H315l-15.23-8.3-.08-.05-.06,0-.18-.11a9.64,9.64,0,0,1-2.57-2.17c-2.53-3.09-2.52-7.73-2.25-13.48v-.07c.21-4.09.44-8.73,3.17-13.43a22.26,22.26,0,0,1,6.46-6.95,30.56,30.56,0,0,1,10.07-4.57l20.25-5-3.42-5.29-7.93-12.23a39.4,39.4,0,0,1-4.26-8.82c-.28-.79-.52-1.59-.73-2.4a45.53,45.53,0,0,1-1.71-12.51,20.92,20.92,0,0,1,1.82-8.6c2.87-3.73,18.77-12.75,34.15-21.47l1.6-.91c3.15-1.76,6.93-3.9,11.17-6.74a106.72,106.72,0,0,0,10.79-8.32l.06,0,1.09-1c8-7.05,14.32-12.92,17.49-23.56a43,43,0,0,0-.46-25.57A35.88,35.88,0,0,1,402.3,169c5.79,4.48,13,12.31,14.58,24.17,1.83,13.83-5.41,24.24-7.68,27.1l-28.57,36.15L425,243.82a28,28,0,0,1,6.94-.82,22.84,22.84,0,0,1,14.84,4.91,23.33,23.33,0,0,1,8,14.42v.06c1.26,9.77-4.62,17-5.82,18.3l-24.24,27.25,36.39-2.5c.37,0,.79,0,1.25,0,3.42,0,12.05.72,18.21,7.36C484.87,317.45,486.87,323.78,486.46,331.52Z"/><path class="cls-1" d="M48.78,384.63a29.88,29.88,0,0,0,9.08,13.5A33.24,33.24,0,0,1,48.78,384.63Zm19.74,3A26.43,26.43,0,0,0,76,392.17h1.15A26.57,26.57,0,0,1,68.52,387.66Zm159.73,4.51h.09c.1,0,.19-.1.29-.15C228.51,392.07,228.38,392.13,228.25,392.17Z"/><path class="cls-1" d="M73.93,406.74a41.75,41.75,0,0,1-16-8.55,41,41,0,0,0,15.58,8.87h1.61C74.71,407,74.32,406.86,73.93,406.74ZM62.94,380a15.79,15.79,0,0,0,5.58,7.65A19,19,0,0,1,62.94,380Z"/><polygon class="cls-1" points="80.27 422.24 80.27 422.23 81.34 422.23 80.27 422.24"/><path class="cls-2" d="M533,271.49a260.77,260.77,0,0,1-85.22,193.14q-9.42,8.61-19.65,16.27-8.66,6.5-17.87,12.27-7.14,4.49-14.58,8.5a258.48,258.48,0,0,1-32.87,14.92q-8.32,3.12-16.93,5.66a260.78,260.78,0,0,1-60,10.34q-7.11.39-14.33.39c-5.57,0-11.11-.17-16.59-.52a260,260,0,0,1-60.12-10.92q-7.16-2.17-14.13-4.78A261.77,261.77,0,0,1,10,271.49C10,127.07,127.07,10,271.49,10S533,127.07,533,271.49Z"/></g></g></svg>