<svg xmlns="http://www.w3.org/2000/svg" viewBox="0 0 542.98 542.98"><defs><style>.cls-1{fill:#795da8;}.cls-1,.cls-2,.cls-3,.cls-4{stroke:#795da8;}.cls-1,.cls-2,.cls-3,.cls-4,.cls-5{stroke-miterlimit:10;}.cls-2,.cls-5{fill:none;}.cls-2{stroke-width:10px;}.cls-3{fill:#6d6d6d;}.cls-4{fill:#fff;}.cls-5{stroke:#dd772b;stroke-width:20px;}</style></defs><g id="Layer_2" data-name="Layer 2"><g id="Layer_1-2" data-name="Layer 1"><path class="cls-1" d="M379.49,386H181.14a14.59,14.59,0,0,1-1.65-.07l1-9.88c.21,0,.41,0,.61,0H379.49Z"/><path class="cls-1" d="M474.05,340.47H451.88l-1.23-3.18a40.11,40.11,0,0,0-37.19-25.47,41.34,41.34,0,0,0-4.18.21l-1-9.88a50,50,0,0,1,50.3,28.39h10a18.66,18.66,0,0,0,1.93-8.29v-50.2a15.23,15.23,0,0,0-15.22-15.22h-1.69l-31.23-8.69,2.66-9.57L455,246.89h.33a25.19,25.19,0,0,1,25.16,25.16v50.2a28.52,28.52,0,0,1-4.91,16Z"/><path class="cls-1" d="M421.08,257.94l-12.37-.4.12-3.83-4.92-12.89-3.78-10.71-11.87-35h-25a11.61,11.61,0,0,0-11.6,11.6v29.4a11.62,11.62,0,0,0,11.6,11.61h41.57v9.93H363.25a21.56,21.56,0,0,1-21.53-21.54v-29.4a21.56,21.56,0,0,1,21.53-21.54H390l7.45,6,12.11,35.63,3.74,10.59Z"/><path class="cls-1" d="M375,340.47H316.42l6.78-8.14a19,19,0,0,0,4.39-12.08V165H381c.4,0,.88,0,1.43,0a23.79,23.79,0,0,1,3.06.32,28.8,28.8,0,0,1,22,17.3l.62,1.88.83,2.16.71,1.84,17.68,50.25-7.62,2.66-19.16-48.86,0-.09-.94-3.52-.34-.62-.07-.17a18.86,18.86,0,0,0-15.31-13A12.56,12.56,0,0,0,382,175l-.41,0c-.21,0-.41,0-.61,0H337.52V320.25a28.84,28.84,0,0,1-1.91,10.29h32.72a49.67,49.67,0,0,1,35.54-27.73l1.89,9.75a39.82,39.82,0,0,0-29.53,24.74Z"/><path class="cls-2" d="M308.71,133H108.86A23.91,23.91,0,0,0,85,156.83V320.24a23.76,23.76,0,0,0,5.54,15.26H88.32a10.24,10.24,0,0,0-10.25,10.25v11.92a10.25,10.25,0,0,0,10.25,10.26h15.85a44.33,44.33,0,0,1-3-16.22,44.61,44.61,0,0,1,3-16.21A44.81,44.81,0,0,1,146,306.85a45.4,45.4,0,0,1,11.31,1.43c.76.2,1.52.42,2.27.66l.49.16.8.27c.37.13.74.26,1.12.41.56.21,1.13.44,1.69.68l1.22.54c.74.34,1.48.71,2.19,1.1.52.28,1,.55,1.51.84.33.19.65.38,1,.59a7.94,7.94,0,0,1,.72.46.47.47,0,0,1,.16.1c.45.29.89.59,1.32.89.76.52,1.49,1.08,2.21,1.65l.67.55c.26.2.5.41.75.64a1.07,1.07,0,0,1,.16.14c.38.33.75.66,1.12,1s.52.49.76.74.45.42.66.65c.53.53,1,1.08,1.52,1.63l.53.6c.09.11.19.22.27.33.24.28.48.58.72.88a2,2,0,0,1,.19.24c.16.19.31.39.44.57a.25.25,0,0,1,.08.1l.51.71c.35.46.67.92,1,1.39l.48.73c.21.33.41.66.61,1,.41.65.78,1.33,1.14,2a43,43,0,0,1,2.3,5H327a24.16,24.16,0,0,0,3.2-5,23.73,23.73,0,0,0,2.34-10.3V156.83A23.91,23.91,0,0,0,308.71,133ZM135.58,304.59a28.85,28.85,0,0,1-28.81-28.81v-90a26.85,26.85,0,0,1,.22-3.5V160.71a5.7,5.7,0,0,1,5.7-5.69H304.22a5.7,5.7,0,0,1,5.7,5.69v21.84a5.52,5.52,0,0,1-.29,1.77c0,.47,0,1,0,1.44v90a28.85,28.85,0,0,1-28.81,28.81Z"/><path class="cls-3" d="M220.91,210.1h0l.28.28Zm0,0h0l.28.28Zm51.75,0h0l.29.28Z"/><path class="cls-1" d="M309.92,160.71a5.7,5.7,0,0,0-5.7-5.69H112.69a5.7,5.7,0,0,0-5.7,5.69v21.55a26.85,26.85,0,0,0-.22,3.5v90a28.85,28.85,0,0,0,28.81,28.81H280.86a28.85,28.85,0,0,0,28.81-28.81v-90c0-.48,0-1,0-1.44a5.52,5.52,0,0,0,.29-1.77Zm-32.3,27.53h15.95v9.5a8,8,0,0,1-15.95,0Zm-25.87,0h15.94v9.5a8,8,0,0,1-15.94,0Zm-25.89,0h16v9.5a8,8,0,0,1-16,0Zm-25.86,0h15.93v9.5a8,8,0,0,1-15.93,0Zm-25.89,0h15.95v9.5a8,8,0,0,1-15.95,0Zm-25.87,0h15.93v9.5a7.89,7.89,0,0,1-7.23,7.93c-.24,0-.49,0-.73,0a8,8,0,0,1-8-8Zm-25.89,0h16v9.5a8,8,0,0,1-8,8,8,8,0,0,1-8-8Zm-4.75,22.07a11.78,11.78,0,0,0,.89.84,3.59,3.59,0,0,0,.42.37c.28.23.57.46.87.67s.36.26.54.39c.47.32,1,.61,1.47.89l.78.4.81.37.51.2a3.8,3.8,0,0,0,.47.18l.32.1c.21.08.43.14.65.2a6.36,6.36,0,0,0,.66.18c.24.07.48.12.73.17s.56.11.84.15a14.24,14.24,0,0,0,1.74.19l1,0a18,18,0,0,0,13-5.53c.32.33.66.66,1,1l.51.45a18.1,18.1,0,0,0,3,2c.19.11.38.2.57.29a15.24,15.24,0,0,0,1.49.65c.26.11.53.19.8.28a17.49,17.49,0,0,0,3.63.77l.68.06c.39,0,.8,0,1.2,0s.92,0,1.38,0h.13a18.19,18.19,0,0,0,2.56-.4c.28-.06.56-.13.82-.21s.54-.16.81-.25.52-.17.78-.27.53-.2.78-.32a16.22,16.22,0,0,0,2.4-1.28c.16-.09.32-.2.48-.31s.45-.31.66-.48.51-.39.75-.59.34-.28.5-.43l0,0,.56-.55.33-.33.19.19a14.67,14.67,0,0,0,1.83,1.6,6.26,6.26,0,0,0,.51.39,13.53,13.53,0,0,0,1.19.78l.65.37a16.35,16.35,0,0,0,2.25,1,4.94,4.94,0,0,0,.58.2,17.43,17.43,0,0,0,3.83.84c.23,0,.45.05.69.06s.78,0,1.17,0a17.76,17.76,0,0,0,5.48-.86c.29-.09.57-.18.85-.29a14,14,0,0,0,1.43-.62c.27-.13.53-.26.78-.4s.37-.2.54-.31a13.62,13.62,0,0,0,1.3-.83l.53-.4.55-.43.46-.39c.36-.33.71-.67,1-1,.33.34.67.68,1,1l.46.39.54.43.54.4c.16.12.32.23.5.34l.57.37,0,0,.72.4c.25.14.5.26.74.38l.11.05q.36.18.72.33l.68.28c.25.1.5.17.76.25l.46.14a5.72,5.72,0,0,0,.59.17,17,17,0,0,0,2.58.47q.34,0,.69.06c.39,0,.79,0,1.19,0a18,18,0,0,0,5.52-.87c.26-.09.54-.17.8-.28a18.17,18.17,0,0,0,5.09-3l.51-.45c.35-.32.69-.65,1-1h0l.27.29.63.6.65.56.65.51.06.05c.22.16.44.32.67.47a13.22,13.22,0,0,0,1.63,1,5.93,5.93,0,0,0,.56.29c.49.24,1,.46,1.49.65.26.11.54.19.81.28a17.39,17.39,0,0,0,3.62.77q.35,0,.69.06c.39,0,.79,0,1.19,0a17.64,17.64,0,0,0,5.47-.86c.29-.09.58-.18.86-.29a15.05,15.05,0,0,0,1.43-.62c.27-.13.53-.26.77-.4l.55-.31a13.47,13.47,0,0,0,1.29-.83l.54-.4c.19-.14.37-.29.54-.43l.46-.39c.37-.33.72-.67,1-1,.33.34.68.68,1.05,1l.45.39.55.43.54.4.49.34.58.37,0,0,.72.4c.24.14.49.26.74.38l.11.05.71.33c.22.1.45.19.69.28s.5.17.76.25l.45.14c.2.07.4.12.6.17a16.78,16.78,0,0,0,2.58.47q.35,0,.69.06c.38,0,.79,0,1.19,0a18,18,0,0,0,5.51-.87c.27-.09.55-.17.81-.28a18.26,18.26,0,0,0,5.08-3l.52-.45c.35-.32.68-.65,1-1h0l.28.29.63.6c.21.19.42.38.64.56l.66.51.06.05c.22.16.43.32.66.47a14.89,14.89,0,0,0,1.63,1c.19.11.38.2.57.29.49.24,1,.46,1.49.65.26.11.53.19.8.28a17.62,17.62,0,0,0,3.63.77l.68.06c.39,0,.8,0,1.2,0l1,0h.12c.32,0,.63,0,1-.09s.55-.07.82-.12a4.86,4.86,0,0,0,.55-.1l.23,0c.23,0,.45-.09.67-.15a17.15,17.15,0,0,0,3.37-1.22c.26-.13.52-.26.77-.4l.63-.35a18.05,18.05,0,0,0,4.41-3.71c.2-.23.38-.46.56-.69h0v67.07a18.88,18.88,0,0,1-18.87,18.87H135.58a18.89,18.89,0,0,1-18.87-18.87V209.36c.12.14.24.28.37.41S117.42,210.13,117.6,210.31Z"/><path class="cls-4" d="M220.91,210.1h0l.28.28Zm0,0h0l.28.28Zm51.75,0h0l.29.28Z"/><path class="cls-1" d="M473.26,372.9h-18V363h18a5.29,5.29,0,0,0,5.29-5.28V345.76a5.29,5.29,0,0,0-5.29-5.29h-1.84v-9.93h1.84a15.23,15.23,0,0,1,15.22,15.22v11.92A15.24,15.24,0,0,1,473.26,372.9Z"/><rect class="cls-4" x="187.86" y="362.96" width="183.74" height="9.93"/><path class="cls-1" d="M360.81,372.9H187.86V363h173a18.45,18.45,0,0,0,7.9-1.75l4.23,9A28.31,28.31,0,0,1,360.81,372.9Z"/><rect class="cls-4" x="327.59" y="156.83" width="9.93" height="13.13"/><path class="cls-1" d="M360.81,349.05H186l-.69-4.15a39.24,39.24,0,0,0-2.1-7.62l-2.59-6.74h198.2l-2.59,6.74a40.16,40.16,0,0,0-1.83,6.15l-.54,2.62-2.49,1A28.5,28.5,0,0,1,360.81,349.05Z"/><path class="cls-1" d="M337.52,170h-9.93V156.83A18.89,18.89,0,0,0,308.72,138V128a28.84,28.84,0,0,1,28.8,28.81Z"/><path class="cls-2" d="M457.87,345.26a45,45,0,0,0-44.41-38.41,45.45,45.45,0,0,0-4.69.24c-1.33.14-2.66.34-3.95.6a44.84,44.84,0,0,0-36.24,44,44.07,44.07,0,0,0,2.24,14c.22.76.5,1.49.78,2.23a44.88,44.88,0,0,0,86.72-16.21A47.46,47.46,0,0,0,457.87,345.26Zm-25.16,22.67a25.2,25.2,0,0,1-33.48,4.57,24.52,24.52,0,0,1-5-4.57,25.18,25.18,0,0,1,10.61-39.86c.67-.24,1.37-.45,2.06-.65.34-.1.7-.18,1.06-.26s.67-.14,1-.2a1.4,1.4,0,0,1,.28-.06,24.47,24.47,0,0,1,4.23-.36,25.08,25.08,0,0,1,19.25,9c.44.52.86,1.06,1.25,1.61s.78,1.14,1.12,1.71c.12.2.23.42.35.62.22.4.44.79.62,1.19s.3.62.44.93a7.73,7.73,0,0,1,.39,1,6.66,6.66,0,0,1,.26.67c.18.48.34,1,.48,1.45s.26,1,.38,1.45.2.92.28,1.37.17,1.12.21,1.69a3.26,3.26,0,0,1,.06.62c0,.16,0,.34,0,.52,0,.47,0,.95,0,1.43A25,25,0,0,1,432.71,367.93Z"/><path class="cls-1" d="M413.46,381.86a30.09,30.09,0,0,1-17-5.26,29.13,29.13,0,0,1-6.05-5.5,30.13,30.13,0,1,1,23.07,10.76Zm0-50.35A20.25,20.25,0,0,0,398,338.68a20.12,20.12,0,0,0,0,26A19.69,19.69,0,0,0,402,368.4a20.21,20.21,0,1,0,11.42-36.89Z"/><path class="cls-2" d="M190.22,344.09a44.13,44.13,0,0,0-2.36-8.59A44.8,44.8,0,0,0,146,306.85a44.92,44.92,0,0,0-44,36.22,44,44,0,0,0-.84,8.65,44.88,44.88,0,1,0,89.75,0A43.57,43.57,0,0,0,190.22,344.09Zm-25,23.84a22.31,22.31,0,0,1-3.36,3.3,25.17,25.17,0,1,1-24.75-43.08,9.56,9.56,0,0,1,1.21-.41,24.75,24.75,0,0,1,7.65-1.2,25.31,25.31,0,0,1,24,17.55,25.53,25.53,0,0,1,1.17,7.63A25,25,0,0,1,165.25,367.93Z"/><path class="cls-1" d="M471.42,340.47H451.88l-1.23-3.18a40.11,40.11,0,0,0-37.19-25.47,41.34,41.34,0,0,0-4.18.21l-1-9.88a50,50,0,0,1,50.3,28.39h12.86Z"/><polygon class="cls-4" points="422.36 248.14 419.74 241.45 427.37 238.81 428.38 241.73 422.36 248.14"/><path class="cls-1" d="M406.67,257.7H363.25a21.56,21.56,0,0,1-21.53-21.54v-29.4a21.56,21.56,0,0,1,21.53-21.54H390l7.45,6,12.11,35.63,8.89,25.29L415.3,257l-5.92.52A21.26,21.26,0,0,1,406.67,257.7Zm-43.51-62.54a11.62,11.62,0,0,0-11.51,11.6v29.4a11.62,11.62,0,0,0,11.6,11.61h43.1l-6.22-17.66-11.47-33.75-.8-.23Z"/><polygon class="cls-1" points="422.36 248.14 400.31 191.84 409.68 188.54 428.38 241.71 422.36 248.14"/><path class="cls-1" d="M377.45,282.75H356.9a7.76,7.76,0,0,1-7.75-7.75v-5.56a7.75,7.75,0,0,1,7.75-7.74h20.55a7.75,7.75,0,0,1,7.75,7.74V275A7.76,7.76,0,0,1,377.45,282.75Zm-18.36-9.94h16.17v-1.18H359.09Z"/><path class="cls-1" d="M475.47,321.32h-21.9a10.2,10.2,0,0,1-10.19-10.19V287.82a10.2,10.2,0,0,1,10.19-10.19h21.9v9.93h-21.9a.27.27,0,0,0-.25.26v23.31a.26.26,0,0,0,.25.25h21.9Z"/><circle class="cls-5" cx="271.49" cy="271.49" r="261.49"/></g></g></svg>